<svg width="28" height="28" viewBox="0 0 28 28" fill="none" xmlns="http://www.w3.org/2000/svg">
<path d="M9.51562 18.4871C6.83594 16.9367 5.03125 14.0383 5.03125 10.7188C5.03125 5.7668 9.04805 1.75 14 1.75C18.952 1.75 22.9688 5.7668 22.9688 10.7188C22.9688 14.0383 21.1641 16.9367 18.4844 18.4871V21.6562C18.4844 22.1402 18.0934 22.5312 17.6094 22.5312H10.3906C9.90664 22.5312 9.51562 22.1402 9.51562 21.6562V18.4871ZM10.7188 24.2812H17.2812C17.4016 24.2812 17.5 24.3797 17.5 24.5V25.375C17.5 25.859 17.109 26.25 16.625 26.25H11.375C10.891 26.25 10.5 25.859 10.5 25.375V24.5C10.5 24.3797 10.5984 24.2812 10.7188 24.2812Z" fill="url(#paint0_linear_10_2299)"/>
<defs>
<linearGradient id="paint0_linear_10_2299" x1="5" y1="2" x2="23" y2="26" gradientUnits="userSpaceOnUse">
<stop stop-color="#FF7A00"/>
<stop offset="1" stop-color="#FFBD80"/>
</linearGradient>
</defs>
</svg>
