<svg width="28" height="28" viewBox="0 0 28 28" fill="none" xmlns="http://www.w3.org/2000/svg">
<path d="M25.8807 13.8085L14.6178 2.55386C14.5367 2.4726 14.4404 2.40814 14.3344 2.36415C14.2283 2.32017 14.1146 2.29753 13.9998 2.29753C13.885 2.29753 13.7714 2.32017 13.6653 2.36415C13.5593 2.40814 13.463 2.4726 13.3819 2.55386L2.11898 13.8085C1.79086 14.1367 1.60492 14.5824 1.60492 15.0472C1.60492 16.0125 2.38968 16.7972 3.35492 16.7972H4.54164V24.8281C4.54164 25.3121 4.93265 25.7031 5.41664 25.7031H12.2498V19.5781H15.3123V25.7031H22.583C23.067 25.7031 23.458 25.3121 23.458 24.8281V16.7972H24.6448C25.1096 16.7972 25.5553 16.614 25.8834 16.2832C26.5643 15.5996 26.5643 14.4921 25.8807 13.8085Z" fill="url(#paint0_linear_10_2307)"/>
<defs>
<linearGradient id="paint0_linear_10_2307" x1="2.00006" y1="2" x2="26.0001" y2="26" gradientUnits="userSpaceOnUse">
<stop stop-color="#FFD600"/>
<stop offset="1" stop-color="#FFF1A9"/>
</linearGradient>
</defs>
</svg>
