<svg width="28" height="28" viewBox="0 0 28 28" fill="none" xmlns="http://www.w3.org/2000/svg">
<path d="M20.3438 1.69531H7.65625C6.69102 1.69531 5.90625 2.48008 5.90625 3.44531V24.4453C5.90625 25.4105 6.69102 26.1953 7.65625 26.1953H20.3438C21.309 26.1953 22.0938 25.4105 22.0938 24.4453V3.44531C22.0938 2.48008 21.309 1.69531 20.3438 1.69531ZM14 22.5312C13.3957 22.5312 12.9062 22.0418 12.9062 21.4375C12.9062 20.8332 13.3957 20.3438 14 20.3438C14.6043 20.3438 15.0938 20.8332 15.0938 21.4375C15.0938 22.0418 14.6043 22.5312 14 22.5312Z" fill="url(#paint0_linear_10_2252)"/>
<defs>
<linearGradient id="paint0_linear_10_2252" x1="3" y1="-2.5" x2="25" y2="29.5" gradientUnits="userSpaceOnUse">
<stop stop-color="#1677FF"/>
<stop offset="1" stop-color="#87B9FE"/>
</linearGradient>
</defs>
</svg>
