<svg width="28" height="28" viewBox="0 0 28 28" fill="none" xmlns="http://www.w3.org/2000/svg">
<path d="M22.75 1.75H5.25C4.76602 1.75 4.375 2.14102 4.375 2.625V8.75H23.625V2.625C23.625 2.14102 23.234 1.75 22.75 1.75ZM7.875 6.34375C7.2707 6.34375 6.78125 5.8543 6.78125 5.25C6.78125 4.6457 7.2707 4.15625 7.875 4.15625C8.4793 4.15625 8.96875 4.6457 8.96875 5.25C8.96875 5.8543 8.4793 6.34375 7.875 6.34375ZM4.375 25.375C4.375 25.859 4.76602 26.25 5.25 26.25H22.75C23.234 26.25 23.625 25.859 23.625 25.375V19.25H4.375V25.375ZM7.875 21.6562C8.4793 21.6562 8.96875 22.1457 8.96875 22.75C8.96875 23.3543 8.4793 23.8438 7.875 23.8438C7.2707 23.8438 6.78125 23.3543 6.78125 22.75C6.78125 22.1457 7.2707 21.6562 7.875 21.6562ZM4.375 17.5H23.625V10.5H4.375V17.5ZM7.875 12.9062C8.4793 12.9062 8.96875 13.3957 8.96875 14C8.96875 14.6043 8.4793 15.0938 7.875 15.0938C7.2707 15.0938 6.78125 14.6043 6.78125 14C6.78125 13.3957 7.2707 12.9062 7.875 12.9062Z" fill="url(#paint0_linear_10_2334)"/>
<defs>
<linearGradient id="paint0_linear_10_2334" x1="4" y1="0.5" x2="24" y2="26" gradientUnits="userSpaceOnUse">
<stop stop-color="#24FF00"/>
<stop offset="1" stop-color="#CDFFC5"/>
</linearGradient>
</defs>
</svg>
