<svg width="28" height="28" viewBox="0 0 28 28" fill="none" xmlns="http://www.w3.org/2000/svg">
<path d="M24.7707 22.0582L23.6715 15.277C23.6551 15.1703 23.5621 15.0938 23.4555 15.0938H16.3023C16.1957 15.0938 16.1027 15.1703 16.0863 15.277L14.9871 22.0582C14.9844 22.0691 14.9844 22.0828 14.9844 22.0938C14.9844 22.2141 15.0828 22.3125 15.2031 22.3125H24.5547C24.5656 22.3125 24.5793 22.3125 24.5902 22.3098C24.7078 22.2906 24.7898 22.1785 24.7707 22.0582ZM11.9137 15.277C11.8973 15.1703 11.8043 15.0938 11.6977 15.0938H4.54453C4.43789 15.0938 4.34492 15.1703 4.32852 15.277L3.2293 22.0582C3.22656 22.0691 3.22656 22.0828 3.22656 22.0938C3.22656 22.2141 3.325 22.3125 3.44531 22.3125H12.7969C12.8078 22.3125 12.8215 22.3125 12.8324 22.3098C12.9527 22.2906 13.032 22.1785 13.0129 22.0582L11.9137 15.277ZM9.35156 12.9062H18.7031C18.7141 12.9062 18.7277 12.9062 18.7387 12.9035C18.859 12.8844 18.9383 12.7723 18.9191 12.652L17.8199 5.8707C17.8035 5.76406 17.7105 5.6875 17.6039 5.6875H10.4508C10.3441 5.6875 10.2512 5.76406 10.2348 5.8707L9.13555 12.652C9.13281 12.6629 9.13281 12.6766 9.13281 12.6875C9.13281 12.8078 9.23125 12.9062 9.35156 12.9062Z" fill="url(#paint0_linear_10_2359)"/>
<defs>
<linearGradient id="paint0_linear_10_2359" x1="3" y1="6" x2="25" y2="22" gradientUnits="userSpaceOnUse">
<stop stop-color="#FFC700"/>
<stop offset="1" stop-color="#FFE999"/>
</linearGradient>
</defs>
</svg>
