<svg width="28" height="28" viewBox="0 0 28 28" fill="none" xmlns="http://www.w3.org/2000/svg">
<path d="M26.2225 11.3038L25.5745 10.1718C25.5453 10.1219 25.4976 10.0855 25.4418 10.0707C25.3859 10.0558 25.3265 10.0636 25.2764 10.0925L23.8901 10.9019L21.7491 4.99013C21.636 4.63738 21.4138 4.32968 21.1145 4.11146C20.8152 3.89324 20.4543 3.77579 20.0838 3.77607H8.23579C7.28696 3.77607 6.44477 4.38857 6.1522 5.29365L4.11235 10.9046L2.72329 10.0952C2.67321 10.0664 2.61376 10.0585 2.55791 10.0734C2.50207 10.0883 2.45438 10.1246 2.42524 10.1745L1.7772 11.3038C1.71704 11.4077 1.75259 11.539 1.85649 11.5991L3.50806 12.5616L3.11157 13.6554C3.07876 13.7429 3.06235 13.8358 3.06235 13.9288V23.4499C3.06235 23.8792 3.38501 24.2265 3.78149 24.2265H5.62993C5.96626 24.2265 6.25884 23.9722 6.32993 23.6167L6.54048 22.5858H21.4592L21.6698 23.6167C21.7436 23.9722 22.0334 24.2265 22.3698 24.2265H24.2182C24.6147 24.2265 24.9374 23.8792 24.9374 23.4499V13.9288C24.9374 13.8358 24.9209 13.7429 24.8881 13.6554L24.4916 12.5616L26.1405 11.5991C26.1901 11.5705 26.2265 11.5235 26.2419 11.4682C26.2572 11.413 26.2503 11.354 26.2225 11.3038ZM7.2186 16.9804C6.61431 16.9804 6.12485 16.4909 6.12485 15.8866C6.12485 15.2823 6.61431 14.7929 7.2186 14.7929C7.8229 14.7929 8.31235 15.2823 8.31235 15.8866C8.31235 16.4909 7.8229 16.9804 7.2186 16.9804ZM17.828 19.0312C17.828 19.1515 17.7295 19.2499 17.6092 19.2499H10.3905C10.2702 19.2499 10.1717 19.1515 10.1717 19.0312V16.7343C10.1717 16.614 10.2702 16.5155 10.3905 16.5155H11.4842C11.6045 16.5155 11.703 16.614 11.703 16.7343V17.7186H16.2967V16.7343C16.2967 16.614 16.3952 16.5155 16.5155 16.5155H17.6092C17.7295 16.5155 17.828 16.614 17.828 16.7343V19.0312ZM20.7811 16.9804C20.1768 16.9804 19.6874 16.4909 19.6874 15.8866C19.6874 15.2823 20.1768 14.7929 20.7811 14.7929C21.3854 14.7929 21.8749 15.2823 21.8749 15.8866C21.8749 16.4909 21.3854 16.9804 20.7811 16.9804ZM6.01548 11.4296L8.00337 5.96357L8.01704 5.92802L8.02798 5.89248C8.05806 5.80224 8.14009 5.74209 8.23579 5.74209H19.928L21.9897 11.4296H6.01548Z" fill="url(#paint0_linear_10_2289)"/>
<defs>
<linearGradient id="paint0_linear_10_2289" x1="2" y1="4" x2="26" y2="24" gradientUnits="userSpaceOnUse">
<stop stop-color="#FF0000"/>
<stop offset="1" stop-color="#FF9191"/>
</linearGradient>
</defs>
</svg>
