<svg width="28" height="28" viewBox="0 0 28 28" fill="none" xmlns="http://www.w3.org/2000/svg">
<path d="M23.7891 3.44528H18.1508C17.675 3.44528 17.2512 3.77067 17.1391 4.24645C16.7973 5.6902 15.5039 6.72653 14 6.72653C12.4961 6.72653 11.2027 5.6902 10.8609 4.24645C10.8076 4.01825 10.6786 3.81483 10.4949 3.66934C10.3111 3.52385 10.0836 3.44488 9.84922 3.44528H4.21094C3.89185 3.44528 3.58583 3.57203 3.3602 3.79766C3.13457 4.02329 3.00781 4.32931 3.00781 4.6484V11.539C3.00781 11.8581 3.13457 12.1641 3.3602 12.3898C3.58583 12.6154 3.89185 12.7422 4.21094 12.7422H6.26172V23.3515C6.26172 23.6706 6.38848 23.9766 6.61411 24.2023C6.83974 24.4279 7.14576 24.5547 7.46484 24.5547H20.5352C20.8542 24.5547 21.1603 24.4279 21.3859 24.2023C21.6115 23.9766 21.7383 23.6706 21.7383 23.3515V12.7422H23.7891C24.1082 12.7422 24.4142 12.6154 24.6398 12.3898C24.8654 12.1641 24.9922 11.8581 24.9922 11.539V4.6484C24.9922 4.32931 24.8654 4.02329 24.6398 3.79766C24.4142 3.57203 24.1082 3.44528 23.7891 3.44528Z" fill="url(#paint0_linear_10_2273)"/>
<defs>
<linearGradient id="paint0_linear_10_2273" x1="3" y1="3" x2="25" y2="25" gradientUnits="userSpaceOnUse">
<stop stop-color="#883FFF"/>
<stop offset="1" stop-color="#C5A2FF"/>
</linearGradient>
</defs>
</svg>
