<svg width="28" height="28" viewBox="0 0 28 28" fill="none" xmlns="http://www.w3.org/2000/svg">
<path d="M25.2383 7.75451C24.8718 6.90586 24.3433 6.13682 23.6824 5.49045C23.0211 4.84214 22.2413 4.32694 21.3855 3.97287C20.4982 3.60426 19.5464 3.41558 18.5855 3.41779C17.2375 3.41779 15.9223 3.78693 14.7793 4.4842C14.5059 4.65099 14.2461 4.8342 14 5.03381C13.7539 4.8342 13.4941 4.65099 13.2207 4.4842C12.0777 3.78693 10.7625 3.41779 9.41445 3.41779C8.44375 3.41779 7.50312 3.60373 6.61445 3.97287C5.75586 4.32834 4.98203 4.83966 4.31758 5.49045C3.65585 6.13609 3.12724 6.90531 2.76172 7.75451C2.38164 8.63771 2.1875 9.5756 2.1875 10.5408C2.1875 11.4514 2.37344 12.4002 2.74258 13.3654C3.05156 14.1721 3.49453 15.0088 4.06055 15.8537C4.95742 17.1908 6.19062 18.5854 7.72187 19.999C10.2594 22.3424 12.7723 23.9611 12.8789 24.0268L13.527 24.4424C13.8141 24.6256 14.1832 24.6256 14.4703 24.4424L15.1184 24.0268C15.225 23.9584 17.7352 22.3424 20.2754 19.999C21.8066 18.5854 23.0398 17.1908 23.9367 15.8537C24.5027 15.0088 24.9484 14.1721 25.2547 13.3654C25.6238 12.4002 25.8098 11.4514 25.8098 10.5408C25.8125 9.5756 25.6184 8.63771 25.2383 7.75451Z" fill="url(#paint0_linear_10_2371)"/>
<defs>
<linearGradient id="paint0_linear_10_2371" x1="2" y1="3" x2="26" y2="25" gradientUnits="userSpaceOnUse">
<stop stop-color="#FF0000"/>
<stop offset="1" stop-color="#FF9595"/>
</linearGradient>
</defs>
</svg>
